# This file uses centimeters as units for non-parametric coordinates.

mtllib Wall_Rubble1.mtl
g default
v 0.000000 -0.000000 4.410986
v 0.000000 -0.000000 4.801704
v -0.699666 -0.000000 4.410986
v -0.699666 -0.000000 4.801704
v 0.000004 -0.000000 -0.000001
v -0.699666 -0.000000 -0.000000
v 0.000000 -0.000000 -0.669250
v -0.699666 -0.000000 -0.669250
v 2.563022 -0.000000 -0.000002
v 2.563010 -0.000000 -0.669250
v 1.338504 -0.000000 -0.669250
v 1.338507 -0.000000 -0.000002
v -0.699666 -0.000000 3.680893
v 0.000000 -0.000000 3.680893
v 0.000004 5.275497 -0.000001
v -0.699666 5.275497 -0.000000
v -0.699666 5.275497 3.680893
v 0.000000 5.275497 3.680893
v 0.000000 5.275497 4.410986
v 0.000000 5.275497 4.801704
v -0.699666 5.275497 4.410986
v -0.699666 5.275497 4.801704
v 2.563022 5.275497 -0.000002
v 2.563010 5.275497 -0.669250
v 1.338504 5.275497 -0.669250
v 1.338507 5.275497 -0.000002
v 0.000000 5.275497 -0.669250
v -0.699666 5.275497 -0.669250
v 0.000004 3.775821 -0.000001
v 1.338507 3.775821 -0.000002
v 2.563022 3.775821 -0.000002
v 2.563010 3.775821 -0.669250
v 1.338504 3.775821 -0.669250
v 0.000000 3.775821 -0.669250
v -0.699666 3.775821 -0.669250
v -0.699666 3.775821 -0.000000
v -0.699666 3.775821 3.680893
v -0.699666 3.775821 4.410986
v -0.699666 3.775821 4.801704
v 0.000000 3.775821 4.801704
v 0.000000 3.775821 4.410986
v 0.000000 3.775821 3.680893
v 0.000004 1.165849 -0.000001
v 1.338507 1.165849 -0.000002
v 2.563022 1.165849 -0.000002
v 2.563010 1.165849 -0.669250
v 1.338504 1.165849 -0.669250
v 0.000000 1.165849 -0.669250
v -0.699666 1.165849 -0.669250
v -0.699666 1.165849 -0.000000
v -0.699666 1.165849 3.680893
v -0.699666 1.165849 4.410986
v -0.699666 1.165849 4.801704
v 0.000000 1.165849 4.801704
v 0.000000 1.165849 4.410986
v 0.000000 1.165849 3.680893
v 4.764374 1.165849 -0.000021
v 4.764365 1.165849 -0.669270
v 4.716555 3.539199 -0.669270
v 4.716564 3.539199 -0.000021
v 4.764373 -0.000000 -0.000021
v 4.764364 -0.000000 -0.669270
v 5.604035 -0.000001 -0.000029
v 5.604029 -0.000001 -0.669277
v 5.604030 0.940663 -0.669277
v 5.604035 0.940663 -0.000029
v 0.000000 -0.000000 1.218122
v 0.000000 1.165849 1.218122
v 0.000000 3.775821 1.218122
v 0.000000 5.275497 1.218122
v -0.699666 5.275497 1.218122
v -0.699666 3.775821 1.218122
v -0.699666 1.165849 1.218122
v -0.699666 -0.000000 1.218122
v 0.000000 3.775821 2.874936
v 0.000000 1.165849 2.874936
v 0.000000 -0.000000 2.874935
v -0.699666 -0.000000 2.874935
v -0.699666 1.165849 2.874935
v -0.699666 3.775821 2.874935
v -0.699666 5.275497 2.874935
v 0.000000 5.275497 2.874935
v 4.330984 1.165849 -0.000017
v 4.330983 -0.000000 -0.000017
v 4.330974 -0.000000 -0.669266
v 4.330975 1.165849 -0.669266
v 4.283165 3.539199 -0.669266
v 4.283174 3.539199 -0.000017
v 0.000004 3.325815 -0.000001
v 1.338507 3.325815 -0.000002
v 2.563022 3.325815 -0.000002
v 4.330984 3.325815 -0.000018
v 4.764374 3.325815 -0.000021
v 4.764365 3.325815 -0.669270
v 4.330975 3.325815 -0.669266
v 2.563010 3.325815 -0.669250
v 1.338504 3.325815 -0.669250
v 0.000000 3.325815 -0.669250
v -0.699666 3.325815 -0.669250
v -0.699666 3.325815 -0.000000
v -0.699666 3.325815 1.218122
v 0.000000 3.325815 1.218122
vt 0.405743 0.890407
vt 0.165020 0.775015
vt 0.404127 0.941377
vt 0.679604 0.404025
vt 0.888298 0.303861
vt 0.677442 0.286619
vt 0.166024 0.668817
vt 0.282571 0.669031
vt 0.114445 0.278996
vt 0.550662 0.285345
vt 0.852546 0.816796
vt 0.204015 0.269049
vt 0.948045 0.811843
vt 0.997232 0.809291
vt 0.283884 0.775131
vt 0.549199 0.403849
vt 0.365799 0.862099
vt 0.283000 0.936488
vt 0.365490 0.821154
vt 0.456347 0.817587
vt 0.456431 0.859728
vt 0.792892 0.287779
vt 0.032992 0.668574
vt 0.889125 0.238793
vt 0.210545 0.374503
vt 0.748734 0.723149
vt 0.836017 0.719490
vt 0.117004 0.383457
vt 0.929691 0.715563
vt 0.977952 0.713540
vt 0.080197 0.668660
vt 0.738265 0.287230
vt 0.077484 0.774929
vt 0.029339 0.774882
vt 0.742141 0.404110
vt 0.798293 0.404186
vt 0.821944 0.288071
vt 0.019153 0.289578
vt 0.017603 0.392972
vt 0.828151 0.404226
vt 0.584519 0.700707
vt 0.296466 0.856731
vt 0.019594 0.260186
vt 0.744416 0.694468
vt 0.831191 0.691082
vt 0.924331 0.687447
vt 0.339187 0.669134
vt 0.390429 0.669228
vt 0.393881 0.775239
vt 0.341623 0.775188
vt 0.920699 0.135175
vt 0.295918 0.810380
vt 0.310914 0.810065
vt 0.311420 0.856486
vt 0.113718 0.249323
vt 0.202162 0.239116
vt 0.022545 0.063271
vt 0.811916 0.100402
vt 0.417835 0.669278
vt 0.108856 0.050792
vt 0.110465 0.116502
vt 0.501326 0.497201
vt 0.784167 0.099733
vt 0.021568 0.128496
vt 0.714117 0.493211
vt 0.797314 0.491650
vt 0.808844 0.559525
vt 0.724426 0.561689
vt 0.886685 0.489974
vt 0.899501 0.557200
vt 0.421829 0.775266
vt 0.034060 0.637479
vt 0.080990 0.637576
vt 0.335167 0.494088
vt 0.732007 0.098477
vt 0.384732 0.494248
vt 0.411241 0.494334
vt 0.780522 0.021165
vt 0.041587 0.418430
vt 0.086578 0.418602
vt 0.084673 0.493277
vt 0.039020 0.493129
vt 0.807725 0.021980
vt 0.167680 0.493545
vt 0.729393 0.019635
vt 0.279483 0.419343
vt 0.673953 0.097079
vt 0.616403 0.699463
vt 0.621597 0.713065
vt 0.189776 0.039093
vt 0.193872 0.105249
vt 0.280405 0.493910
vt 0.591499 0.495510
vt 0.333455 0.419550
vt 0.065546 0.860199
vt 0.599970 0.564879
vt 0.568986 0.565674
vt 0.064359 0.814633
vt 0.121166 0.812034
vt 0.672496 0.017931
vt 0.554006 0.014384
vt 0.560981 0.496083
vt 0.408433 0.419837
vt 0.972321 0.685575
vt 0.946232 0.556002
vt 0.932763 0.489110
vt 0.553022 0.094167
vt 0.589643 0.714356
vt 0.122214 0.858521
vt 0.507027 0.553525
vt 0.319987 0.812658
vt 0.320454 0.857817
vt 0.763528 0.821413
vt 0.285290 0.885301
vt 0.143750 0.879300
vt 0.172580 0.880523
vt 0.407961 0.062754
vt 0.161407 0.816256
vt 0.162297 0.860557
vt 0.169652 0.931913
vt 0.140658 0.930743
vt 0.465556 0.011736
vt 0.462720 0.091993
vt 0.332011 0.238597
vt 0.551085 0.251067
vt 0.457141 0.249886
vt 0.455921 0.284393
vt 0.497601 0.712647
vt 0.544648 0.714984
vt 0.543190 0.800652
vt 0.495696 0.798457
vt 0.333975 0.223904
vt 0.367058 0.220086
vt 0.365268 0.234827
vt 0.317957 0.088508
vt 0.310053 0.021703
vt 0.451705 0.403717
vt 0.554363 0.076353
vt 0.681786 0.079589
vt 0.340180 0.017348
vt 0.349057 0.084312
vt 0.891079 0.085083
vt 0.166317 0.637754
vt 0.685871 0.278951
vt 0.890494 0.131074
vt 0.551937 0.277528
vt 0.552373 0.241379
vt 0.223654 0.934092
vt 0.920870 0.089321
vt 0.920296 0.242555
vt 0.541565 0.896165
vt 0.540702 0.946889
vt 0.920053 0.307403
vt 0.492444 0.944941
vt 0.226277 0.882799
vt 0.493572 0.894131
vt 0.399289 0.008802
vt 0.168386 0.418916
vt 0.382306 0.419737
vn 0.000000 1.000000 0.000000
vn 0.000000 1.000000 0.000000
vn 0.000000 1.000000 0.000000
vn 0.000000 1.000000 0.000000
vn 0.000000 1.000000 0.000000
vn 0.000000 1.000000 0.000000
vn 0.000000 1.000000 0.000000
vn 0.000000 1.000000 0.000000
vn 0.000000 1.000000 0.000001
vn 0.000000 1.000000 0.000001
vn 0.000000 1.000000 0.000000
vn 0.000000 1.000000 0.000000
vn 0.000000 1.000000 -0.000000
vn 0.000000 1.000000 -0.000000
vn 0.000000 1.000000 0.000000
vn 0.000000 1.000000 -0.000000
vn 0.000000 1.000000 0.000000
vn 0.000000 1.000000 0.000000
vn -1.000000 0.000000 0.000000
vn -1.000000 0.000000 0.000000
vn -1.000000 0.000000 0.000000
vn -1.000000 0.000000 0.000000
vn 1.000000 0.000000 0.000000
vn 1.000000 0.000000 0.000000
vn 1.000000 0.000000 0.000001
vn 1.000000 0.000000 0.000001
vn 0.000000 0.000000 1.000000
vn 0.000000 0.000000 1.000000
vn 0.000000 0.000000 1.000000
vn 0.000000 0.000000 1.000000
vn 1.000000 0.000000 -0.000017
vn 1.000000 0.000000 -0.000017
vn 1.000000 0.000000 -0.000017
vn 1.000000 0.000000 -0.000017
vn -0.000000 -0.000000 -1.000000
vn -0.000000 0.000000 -1.000000
vn -0.000000 0.000000 -1.000000
vn -0.000000 0.000000 -1.000000
vn 0.000000 0.000000 1.000000
vn 0.000000 0.000000 1.000000
vn 0.000000 0.000000 1.000000
vn 0.000000 0.000000 1.000000
vn 0.000000 0.000000 -1.000000
vn 0.000000 0.000000 -1.000000
vn 0.000000 0.000000 -1.000000
vn 0.000000 0.000000 -1.000000
vn -1.000000 0.000000 0.000000
vn -1.000000 0.000000 0.000000
vn -1.000000 0.000000 0.000000
vn -1.000000 0.000000 0.000000
vn -0.000000 0.000000 -1.000000
vn -0.000000 0.000000 -1.000000
vn -0.000000 0.000000 -1.000000
vn -0.000000 0.000000 -1.000000
vn 0.000000 0.000000 1.000000
vn 0.000000 0.000000 1.000000
vn 0.000000 0.000000 1.000000
vn 0.000000 0.000000 1.000000
vn -1.000000 0.000000 0.000000
vn -1.000000 0.000000 0.000000
vn -1.000000 0.000000 0.000000
vn -1.000000 0.000000 0.000000
vn 1.000000 0.000000 0.000000
vn 1.000000 0.000000 0.000000
vn 1.000000 0.000000 0.000000
vn 1.000000 0.000000 0.000000
vn 1.000000 0.000000 0.000000
vn 1.000000 0.000000 0.000000
vn 1.000000 0.000000 0.000000
vn 1.000000 0.000000 0.000000
vn -1.000000 0.000000 0.000000
vn -1.000000 0.000000 0.000000
vn -1.000000 0.000000 0.000000
vn -1.000000 0.000000 0.000000
vn 0.000000 0.000000 1.000000
vn 0.000000 0.000000 1.000000
vn 0.000000 0.000000 1.000000
vn 0.000005 0.000000 1.000000
vn 0.999797 0.020140 -0.000013
vn 0.999797 0.020140 -0.000013
vn 0.975806 0.218636 -0.000013
vn 0.975807 0.218636 -0.000013
vn -0.000005 -0.000000 -1.000000
vn -0.000000 0.000000 -1.000000
vn -0.000000 0.000000 -1.000000
vn -0.000000 0.000000 -1.000000
vn 0.000000 0.000000 -1.000000
vn 0.000000 0.000000 -1.000000
vn -1.000000 0.000000 0.000000
vn -1.000000 0.000000 0.000000
vn -1.000000 0.000000 0.000000
vn -1.000000 0.000000 0.000000
vn -1.000000 0.000000 0.000000
vn -1.000000 0.000000 0.000000
vn 0.000000 0.000000 1.000000
vn 0.000000 0.000000 1.000000
vn 1.000000 0.000000 0.000000
vn 1.000000 0.000000 0.000000
vn 1.000000 0.000000 0.000000
vn 1.000000 0.000000 0.000000
vn 0.000000 0.000000 1.000000
vn 0.000000 0.000000 1.000000
vn 0.000000 0.000000 1.000000
vn 0.000000 0.000000 1.000000
vn 0.000000 0.000000 1.000000
vn 0.000005 -0.000000 1.000000
vn 0.000005 0.000000 1.000000
vn 0.000000 0.000000 1.000000
vn 1.000000 0.000000 -0.000008
vn 1.000000 0.000000 -0.000008
vn 1.000000 0.000000 -0.000008
vn 1.000000 0.000000 -0.000008
vn -0.000005 0.000000 -1.000000
vn -0.000000 0.000000 -1.000000
vn -0.000000 0.000000 -1.000000
vn -0.000005 0.000000 -1.000000
vn -0.000000 0.000000 -1.000000
vn -0.000000 0.000000 -1.000000
vn -0.000000 0.000000 -1.000000
vn -0.000000 0.000000 -1.000000
vn 0.000000 0.000000 -1.000000
vn 0.000000 0.000000 -1.000000
vn 0.000000 0.000000 -1.000000
vn 0.000000 0.000000 -1.000000
vn -1.000000 0.000000 0.000000
vn -1.000000 0.000000 0.000000
vn -1.000000 0.000000 0.000000
vn -1.000000 0.000000 0.000000
vn -1.000000 0.000000 0.000000
vn -1.000000 0.000000 0.000000
vn -1.000000 0.000000 0.000000
vn -1.000000 0.000000 0.000000
vn -1.000000 0.000000 0.000000
vn -1.000000 0.000000 0.000000
vn -1.000000 0.000000 0.000000
vn -1.000000 0.000000 0.000000
vn 0.000000 0.000000 1.000000
vn 0.000000 0.000000 1.000000
vn 1.000000 0.000000 0.000000
vn 1.000000 0.000000 0.000000
vn 1.000000 0.000000 0.000000
vn 1.000000 0.000000 0.000000
vn 1.000000 0.000000 0.000000
vn 1.000000 0.000000 0.000000
vn 1.000000 0.000000 0.000001
vn 1.000000 0.000000 0.000002
vn -0.000009 -0.000000 -1.000000
vn -0.000009 -0.000000 -1.000000
vn -0.000009 -0.000001 -1.000000
vn -0.000009 -0.000002 -1.000000
vn 0.109218 0.994018 -0.000002
vn 0.109219 0.994018 -0.000002
vn 0.000000 1.000000 0.000000
vn 0.000000 1.000000 0.000000
vn 0.000009 0.000000 1.000000
vn 0.000009 0.000000 1.000000
vn 0.000009 0.000000 1.000000
vn 0.000009 0.000002 1.000000
vn -0.000009 0.000000 -1.000000
vn -0.000009 0.000000 -1.000000
vn -0.000009 0.000000 -1.000000
vn -0.000009 0.000000 -1.000000
vn 0.000009 0.000000 1.000000
vn 0.000009 -0.000000 1.000000
vn 0.000009 -0.000000 1.000000
vn 0.000009 0.000000 1.000000
vn -0.000009 0.000000 -1.000000
vn -0.000009 0.000000 -1.000000
vn 0.259032 0.965869 -0.000003
vn 0.259032 0.965869 -0.000003
vn 0.259032 0.965869 -0.000003
vn 0.259032 0.965869 -0.000003
vn 0.000009 -0.000000 1.000000
vn 0.000009 -0.000000 1.000000
vn 1.000000 0.000000 0.000003
vn 1.000000 0.000000 0.000003
vn 1.000000 0.000000 0.000003
vn 1.000000 0.000000 0.000003
vn 1.000000 0.000000 0.000003
vn 1.000000 0.000000 0.000003
vn -1.000000 0.000000 0.000000
vn -1.000000 0.000000 0.000000
vn -1.000000 0.000000 0.000000
vn -1.000000 0.000000 0.000000
vn -1.000000 0.000000 0.000000
vn -1.000000 0.000000 0.000000
vn 1.000000 0.000000 0.000000
vn 1.000000 0.000000 0.000000
vn 1.000000 0.000000 0.000000
vn -1.000000 0.000000 0.000000
vn -1.000000 0.000000 0.000000
vn -1.000000 0.000000 0.000000
vn -1.000000 0.000000 0.000000
vn 1.000000 0.000000 0.000000
vn 0.000000 1.000000 0.000000
vn 0.000000 1.000000 0.000000
vn 0.000000 1.000000 0.000000
vn 0.000000 1.000000 0.000000
vn 0.000001 0.000000 -1.000000
vn 0.000001 0.000000 -1.000000
vn 0.000001 0.000000 -1.000000
vn 0.000001 0.000000 -1.000000
vn 0.000000 -1.000000 0.000000
vn 0.000000 -1.000000 0.000000
vn 0.000000 -1.000000 0.000000
vn 0.000000 -1.000000 0.000000
vn 0.000000 0.000000 1.000000
vn 0.000000 0.000000 1.000000
vn 0.000000 0.000000 1.000000
vn 0.000000 0.000000 1.000000
vn 0.136276 0.990671 -0.000002
vn 0.136276 0.990671 -0.000002
vn 1.000000 0.000000 -0.000013
vn 1.000000 0.000000 -0.000013
vn 0.000000 0.000000 1.000000
vn 0.000000 0.000000 1.000000
s 1
g polySurface4 pCube1
usemtl initialShadingGroup
f 70/1/1 71/3/2 81/18/3 82/114/4
f 20/115/5 19/116/6 21/120/7 22/121/8
f 23/128/9 24/129/10 25/130/11 26/131/12
f 27/151/13 28/152/14 16/154/15 15/156/16
f 26/131/12 25/130/11 27/151/13 15/156/16
f 18/155/17 17/148/18 21/120/7 19/116/6
s 4
f 71/2/19 72/7/20 80/8/21 81/15/22
s 5
f 82/4/23 75/6/24 69/10/25 70/16/26
s 6
f 39/150/27 40/24/28 20/5/29 22/153/30
s off
f 31/17/31 32/19/32 24/20/33 23/21/34
s 7
f 32/26/35 33/27/36 25/11/37 24/113/38
s 8
f 30/9/39 31/12/40 23/25/41 26/28/42
s 9
f 34/29/43 35/30/44 28/14/45 27/13/46
s 10
f 35/23/47 36/31/48 16/33/49 28/34/50
s 11
f 33/27/51 34/29/52 27/13/53 25/11/54
s 12
f 29/38/55 30/9/56 26/28/57 15/39/58
s 13
f 37/47/59 38/48/60 21/49/61 17/50/62
s 14
f 41/22/63 42/32/64 18/35/65 19/36/66
s 15
f 40/37/67 41/22/68 19/36/69 20/40/70
s 16
f 21/49/71 38/48/72 39/59/73 22/71/74
s 12
f 89/43/75 90/55/76 30/9/56 29/38/55
s 8
f 90/55/77 91/56/78 31/12/40 30/9/39
s 17
f 93/42/79 94/52/80 59/53/81 60/54/82
s 7
f 96/44/83 97/45/84 33/27/36 32/26/35
s 11
f 97/45/85 98/46/86 34/29/52 33/27/51
s 9
f 98/46/87 99/104/88 35/30/44 34/29/43
s 10
f 99/72/89 100/73/90 36/31/48 35/23/47
s 13
f 51/74/91 52/76/92 38/48/60 37/47/59
s 16
f 39/59/73 38/48/72 52/76/93 53/77/94
s 6
f 53/51/95 54/145/96 40/24/28 39/150/27
s 15
f 54/58/97 55/63/98 41/22/68 40/37/67
s 14
f 55/63/99 56/75/100 42/32/64 41/22/63
s 12
f 5/57/101 12/60/102 44/61/103 43/64/104
s 8
f 12/60/105 9/90/106 45/91/107 44/61/108
s off
f 63/95/109 64/98/110 65/99/111 66/109/112
s 7
f 10/65/113 11/66/114 47/67/115 46/68/116
s 11
f 11/66/117 7/69/118 48/70/119 47/67/120
s 9
f 7/69/121 8/106/122 49/105/123 48/70/124
s 10
f 8/79/125 6/80/126 50/81/127 49/82/128
s 4
f 73/84/129 74/158/130 78/86/131 79/92/132
s 13
f 13/94/133 3/159/134 52/76/92 51/74/91
s 16
f 53/77/94 52/76/93 3/159/135 4/103/136
s 6
f 4/149/137 2/142/138 54/145/96 53/51/95
s 15
f 1/78/139 55/63/98 54/58/97 2/83/140
s 14
f 1/78/141 14/85/142 56/75/100 55/63/99
s 5
f 76/87/143 77/100/144 67/101/145 68/107/146
s 7
f 94/41/147 95/88/148 87/89/149 59/108/150
s 22
f 87/111/151 88/112/152 60/54/153 59/53/154
s 8
f 88/124/155 92/132/156 93/133/157 60/134/158
s 7
f 85/93/159 86/96/160 58/97/161 62/102/162
s 8
f 83/135/163 84/136/164 61/140/165 57/141/166
s 7
f 62/102/162 58/97/161 65/110/167 64/62/168
s off
f 58/118/169 57/119/170 66/109/171 65/99/172
s 8
f 57/141/166 61/140/165 63/157/173 66/117/174
s 5
f 68/107/146 67/101/145 5/122/175 43/123/176
f 69/10/25 102/125/177 89/126/178 29/127/179
f 70/16/26 69/10/25 29/127/179 15/137/180
s 1
f 15/156/16 16/154/15 71/3/2 70/1/1
s 4
f 36/31/181 72/7/20 71/2/19 16/33/182
f 100/73/183 101/143/184 72/7/20 36/31/181
f 6/80/185 74/158/130 73/84/129 50/81/186
s 5
f 56/75/187 76/87/143 75/6/24 42/32/188
f 14/85/189 77/100/144 76/87/143 56/75/187
s 4
f 79/92/132 78/86/131 13/94/190 51/74/191
f 80/8/21 79/92/132 51/74/191 37/47/192
f 81/15/22 80/8/21 37/47/192 17/50/193
s 1
f 82/114/4 81/18/3 17/148/18 18/155/17
s 5
f 42/32/188 75/6/24 82/4/23 18/35/194
s off
f 73/138/195 79/139/196 76/87/197 68/107/198
f 75/6/199 76/87/200 79/139/201 80/144/202
f 80/144/203 72/146/204 69/10/205 75/6/206
s 23
f 101/147/207 102/125/208 69/10/209 72/146/210
s 8
f 45/91/107 9/90/106 84/136/164 83/135/163
s 7
f 10/65/113 46/68/116 86/96/160 85/93/159
f 95/88/148 96/44/83 32/26/35 87/89/149
s 22
f 32/19/211 31/17/212 88/112/152 87/111/151
s 8
f 31/12/40 91/56/78 92/132/156 88/124/155
s 12
f 43/64/104 44/61/103 90/55/76 89/43/75
s 8
f 44/61/108 45/91/107 91/56/78 90/55/77
f 92/132/156 91/56/78 45/91/107 83/135/163
f 93/133/157 92/132/156 83/135/163 57/141/166
s 17
f 57/119/213 58/118/214 94/52/80 93/42/79
s 7
f 86/96/160 95/88/148 94/41/147 58/97/161
f 46/68/116 96/44/83 95/88/148 86/96/160
f 46/68/116 47/67/115 97/45/84 96/44/83
s 11
f 47/67/120 48/70/119 98/46/86 97/45/85
s 9
f 48/70/124 49/105/123 99/104/88 98/46/87
s 10
f 49/82/128 50/81/127 100/73/90 99/72/89
s 4
f 50/81/186 73/84/129 101/143/184 100/73/183
s 23
f 68/107/215 102/125/208 101/147/207 73/138/216
s 5
f 89/126/178 102/125/177 68/107/146 43/123/176
